<svg width="17" height="20" viewBox="0 0 17 20" fill="none" xmlns="http://www.w3.org/2000/svg" aria-hidden="true">
  <path d="M8.5 18a2.2 2.2 0 0 0 2.1-1.6H6.4A2.2 2.2 0 0 0 8.5 18Z" fill="#333333"/>
  <path d="M13.8 14.1V8.6c0-2.7-1.4-5.1-3.8-6.4-.5-.3-1.1.1-1.1.7v.4c0 .4.2.8.5 1 1.7 1 2.8 2.9 2.8 5v4.9l1.2 1.2c.3.3.1.7-.3.7H2.1c-.4 0-.6-.4-.3-.7l1.2-1.2V8.6c0-2.1 1.1-4 2.8-5 .3-.2.5-.6.5-1V2.9c0-.6-.6-1-1.1-.7-2.4 1.3-3.8 3.7-3.8 6.4v5.5L0 15.4c-.2.2 0 .6.3.6h15.2c.3 0 .5-.4.3-.6l-1.8-1.9Z" fill="#333333"/>
</svg>
