<svg width="29" height="29" viewBox="0 0 29 29" fill="none" xmlns="http://www.w3.org/2000/svg" aria-hidden="true">
  <circle cx="14.5" cy="14.5" r="14.25" stroke="white" stroke-width="0.75"/>
  <path d="M19.2 9.8a6.8 6.8 0 0 0-11.5 5.1c0 1.2.3 2.3.9 3.3l-.6 2.2 2.3-.6a6.8 6.8 0 0 0 3.2.8h.1a6.8 6.8 0 0 0 5.6-10.8zm-4.5 9.3a5.6 5.6 0 0 1-2.9-.8l-.2-.1-1.9.4.4-1.8-.1-.2a5.6 5.6 0 1 1 4.7 2.5zm3.2-4.2c-.2-.1-1.1-.5-1.3-.6-.2-.1-.3-.1-.4.1-.1.2-.5.6-.6.7-.1.1-.2.1-.4.1-.2 0-.7-.2-1.3-.8-.5-.4-.8-.9-.8-1.1-.1-.2 0-.2.1-.4 0 0 .2-.2.2-.3 0-.1.1-.2.2-.3 0-.1.1-.2 0-.3 0-.1-.4-1-1-1.4-.2-.4-.3-.3-.4-.3h-.4c-.1 0-.3.1-.4.2-.2.2-.6.6-.6 1.4s.6 1.7.7 1.8c.1.1 1.2 1.8 2.9 2.5 1.7.7 1.7.5 2 .5.3 0 1.1-.5 1.3-1 .2-.5.2-.9.1-1 0 0-.2-.1-.4-.2z" fill="white"/>
</svg>
