<svg preserveAspectRatio="none" width="100%" height="100%" overflow="visible" style="display: block;" viewBox="0 0 20 22" fill="none" xmlns="http://www.w3.org/2000/svg">
<path id="Vector" d="M19.5505 6.74732C19.4079 6.60063 19.2382 6.4843 19.0513 6.40506C18.8644 6.32583 18.6639 6.28526 18.4615 6.28571H15.3846V5.5C15.3846 4.04131 14.8173 2.64236 13.8075 1.61091C12.7977 0.579463 11.4281 0 10 0C8.57191 0 7.20231 0.579463 6.1925 1.61091C5.18269 2.64236 4.61538 4.04131 4.61538 5.5V6.28571H1.53846C1.13044 6.28571 0.739122 6.45128 0.450605 6.74598C0.162087 7.04068 0 7.44037 0 7.85714V18.4643C0 20.3795 1.58654 22 3.46154 22H16.5385C17.4454 22.0003 18.3165 21.6381 18.9654 20.9908C19.2919 20.6726 19.552 20.2901 19.7298 19.8665C19.9076 19.4428 19.9995 18.9867 20 18.5257V7.85714C20.0006 7.65098 19.9612 7.44675 19.8841 7.25625C19.8069 7.06575 19.6935 6.89277 19.5505 6.74732ZM6.15384 5.5C6.15384 4.45808 6.55906 3.45883 7.28036 2.72208C8.00165 1.98533 8.97993 1.57143 10 1.57143C11.0201 1.57143 11.9983 1.98533 12.7196 2.72208C13.4409 3.45883 13.8461 4.45808 13.8461 5.5V6.28571H6.15384V5.5ZM15.3846 10.2143C15.3846 11.673 14.8173 13.0719 13.8075 14.1034C12.7977 15.1348 11.4281 15.7143 10 15.7143C8.57191 15.7143 7.20231 15.1348 6.1925 14.1034C5.18269 13.0719 4.61538 11.673 4.61538 10.2143V9.42857C4.61538 9.22019 4.69643 9.02034 4.84069 8.87299C4.98494 8.72564 5.1806 8.64286 5.38461 8.64286C5.58863 8.64286 5.78428 8.72564 5.92854 8.87299C6.0728 9.02034 6.15384 9.22019 6.15384 9.42857V10.2143C6.15384 11.2562 6.55906 12.2555 7.28036 12.9922C8.00165 13.729 8.97993 14.1429 10 14.1429C11.0201 14.1429 11.9983 13.729 12.7196 12.9922C13.4409 12.2555 13.8461 11.2562 13.8461 10.2143V9.42857C13.8461 9.22019 13.9272 9.02034 14.0715 8.87299C14.2157 8.72564 14.4114 8.64286 14.6154 8.64286C14.8194 8.64286 15.015 8.72564 15.1593 8.87299C15.3036 9.02034 15.3846 9.22019 15.3846 9.42857V10.2143Z" fill="var(--fill-0, #0059DD)"/>
</svg>
